PathFileType	4	(X/Y/Z)	1H_rest_med_right.trc
DataRate	CameraRate	NumFrames	NumMarkers	Units	OrigDataRate	OrigDataStartFrame	OrigNumFrames
250.00	250.00	21	18	mm	250.00	3661	29281
Frame#	Time	c7	r_should	l_should	clavicle	r_upa	r_elb_l	r_elb_m	r_low	r_wri_l	r_wri_m	r_met	l_upa	l_elb_l	l_elb_m	l_low	l_wri_l	l_wri_m	l_met
	X1	Y1	Z1	X2	Y2	Z2	X3	Y3	Z3	X4	Y4	Z4	X5	Y5	Z5	X6	Y6	Z6	X7	Y7	Z7	X8	Y8	Z8	X9	Y9	Z9	X10	Y10	Z10	X11	Y11	Z11	X12	Y12	Z12	X13	Y13	Z13	X14	Y14	Z14	X15	Y15	Z15	X16	Y16	Z16	X17	Y17	Z17	X18	Y18	Z18
3661	14.64000	601.09589	1417.94934	263.73834	649.72406	1363.01550	404.48477	643.46106	1370.57898	89.80524	733.03833	1280.95996	244.03412	688.44073	1167.14136	477.49597	689.49683	1099.77039	494.19299	701.99268	1051.27893	410.92816	793.27490	1177.94397	461.07047	826.93054	1232.56396	425.48895	875.12543	1176.84265	417.20035	900.15076	1284.94446	451.75888	641.82764	1179.78748	16.50985	657.89099	1071.66150	6.67235	605.22351	1034.41785	69.49232	700.91138	907.57373	13.13159	730.29822	836.53204	49.30310	667.81061	814.26501	18.92412	763.68262	751.35736	23.35791
3662	14.64400	601.14282	1417.96240	263.73785	649.76019	1363.02893	404.48654	643.50604	1370.58191	89.80671	733.07056	1280.95850	244.04634	688.44580	1167.10815	477.47531	689.51898	1099.75073	494.19327	701.96777	1051.24084	410.94965	793.36664	1177.83154	461.04056	827.10303	1232.44385	425.47769	875.29016	1176.45398	417.60098	900.35297	1284.78247	451.75397	641.85675	1179.79297	16.51258	657.92029	1071.65466	6.68619	605.20923	1034.40552	69.48166	700.92371	907.57422	13.14776	730.27374	836.50470	49.30787	667.80420	814.23669	18.92351	763.68085	751.34570	23.37883
3663	14.64800	601.18036	1417.96228	263.74728	649.79468	1363.03833	404.50043	643.54846	1370.57007	89.81557	733.09888	1280.96094	244.05396	688.43610	1167.04883	477.45984	689.53894	1099.70203	494.18939	701.91327	1051.18518	410.96753	793.45905	1177.69421	461.00961	827.28577	1232.31311	425.47958	875.43677	1176.21802	417.73199	900.57312	1284.59448	451.75494	641.88287	1179.79089	16.51734	657.94659	1071.64697	6.70246	605.18481	1034.36230	69.46328	700.93353	907.56488	13.16671	730.24097	836.45636	49.31261	667.78229	814.17596	18.93395	763.66864	751.32208	23.40571
3664	14.65200	601.20441	1417.95190	263.76028	649.82239	1363.04382	404.51767	643.58075	1370.55908	89.82019	733.12732	1280.96082	244.05626	688.43750	1166.99463	477.45419	689.56366	1099.65222	494.19254	701.83582	1051.12573	411.02032	793.57123	1177.56909	461.00171	827.48010	1232.17468	425.48553	875.57947	1176.02014	417.78860	900.79822	1284.39014	451.75146	641.90436	1179.78601	16.52063	657.96271	1071.63110	6.71613	605.16949	1034.31348	69.45601	700.93689	907.54883	13.18689	730.21008	836.40991	49.33290	667.74786	814.11560	18.95355	763.65051	751.29321	23.44036
3665	14.65600	601.22662	1417.94702	263.75854	649.84882	1363.04785	404.52832	643.61169	1370.55115	89.81886	733.15527	1280.96619	244.06305	688.44769	1166.96948	477.46872	689.59937	1099.62927	494.21692	701.79120	1051.09326	411.10477	793.71216	1177.47302	461.01129	827.68073	1232.03271	425.47672	875.71063	1175.95435	417.66260	901.02673	1284.19116	451.75345	641.92395	1179.77429	16.52489	657.97339	1071.61255	6.72817	605.16473	1034.29224	69.46617	700.93536	907.52795	13.20589	730.19141	836.37848	49.35580	667.72626	814.07605	18.97839	763.62640	751.26007	23.47325
3666	14.66000	601.25421	1417.94629	263.75394	649.87848	1363.05664	404.52881	643.64221	1370.54163	89.81867	733.18152	1280.97168	244.06689	688.49255	1166.99194	477.51251	689.66473	1099.64612	494.27689	701.77521	1051.10046	411.21210	793.87402	1177.39624	461.03909	827.88660	1231.89148	425.46964	875.84784	1175.89880	417.50610	901.27032	1283.98560	451.75525	641.94604	1179.75867	16.53296	657.98590	1071.58813	6.74078	605.19287	1034.29883	69.49304	700.92993	907.50183	13.22840	730.19281	836.36755	49.38821	667.72247	814.06921	19.01497	763.60205	751.22351	23.50287
3667	14.66400	601.28088	1417.95740	263.74921	649.90912	1363.07581	404.53134	643.67102	1370.53162	89.81767	733.20764	1280.96606	244.06773	688.56104	1167.04724	477.56851	689.74823	1099.68115	494.34738	701.79059	1051.13403	411.32092	794.05670	1177.32812	461.07956	828.09479	1231.74792	425.46683	876.01837	1175.61438	417.65677	901.51593	1283.78113	451.75302	641.97412	1179.74036	16.54926	658.00702	1071.56201	6.76026	605.25549	1034.32568	69.53273	700.92926	907.47357	13.24940	730.21313	836.36890	49.43000	667.73279	814.09955	19.05300	763.58405	751.18970	23.53785
3668	14.66800	601.31140	1417.97815	263.73529	649.94336	1363.10229	404.52969	643.71143	1370.52661	89.81417	733.23615	1280.95459	244.07394	688.62036	1167.10425	477.61508	689.81952	1099.71814	494.40909	701.81763	1051.17126	411.40677	794.24078	1177.26611	461.12222	828.30670	1231.59888	425.46405	876.16095	1175.61926	417.40417	901.75854	1283.57507	451.74417	642.01257	1179.72632	16.56095	658.03149	1071.54077	6.77563	605.32739	1034.35852	69.57085	700.94098	907.45197	13.27116	730.24091	836.37573	49.47400	667.74579	814.14496	19.07846	763.56970	751.16229	23.57061
3669	14.67200	601.35284	1418.00879	263.71655	649.98389	1363.12756	404.52356	643.75275	1370.53296	89.80836	733.26270	1280.95129	244.07622	688.66180	1167.14368	477.63400	689.86102	1099.74841	494.44656	701.82550	1051.19568	411.46619	794.39691	1177.18677	461.13931	828.52209	1231.44556	425.45236	876.32629	1175.45142	417.37448	902.00665	1283.36914	451.73438	642.05328	1179.72949	16.56702	658.05719	1071.52991	6.78996	605.37903	1034.38806	69.57838	700.95276	907.44775	13.28465	730.24707	836.37604	49.49847	667.75397	814.17810	19.08374	763.56366	751.14429	23.59838
3670	14.67600	601.38599	1418.03857	263.69666	650.02490	1363.16809	404.51056	643.79065	1370.53931	89.79955	733.29114	1280.96289	244.08293	688.67871	1167.15076	477.61902	689.88196	1099.75720	494.44229	701.81342	1051.20142	411.48306	794.52655	1177.07568	461.11331	828.75238	1231.29199	425.42780	876.51154	1175.12500	417.55731	902.26776	1283.15894	451.73239	642.09363	1179.73596	16.56879	658.08270	1071.52698	6.80516	605.39404	1034.40039	69.56474	700.96136	907.45068	13.29723	730.22882	836.36713	49.49559	667.74799	814.18658	19.06255	763.55688	751.13470	23.62506
3671	14.68000	601.41443	1418.06335	263.68176	650.06726	1363.20605	404.50339	643.82538	1370.53760	89.79097	733.32135	1280.97205	244.08812	688.66687	1167.12158	477.58472	689.89056	1099.73413	494.40463	701.76984	1051.18579	411.48032	794.66498	1176.93738	461.08414	828.99786	1231.12744	425.40097	876.71497	1174.65259	417.94492	902.54547	1282.92322	451.73056	642.13141	1179.73804	16.56926	658.10510	1071.52148	6.81644	605.36755	1034.38477	69.52837	700.96979	907.44489	13.31137	730.19696	836.33636	49.48066	667.72729	814.15778	19.04542	763.54071	751.12396	23.64802
3672	14.68400	601.44830	1418.07227	263.67245	650.10651	1363.22974	404.50000	643.85883	1370.52490	89.78613	733.35553	1280.97974	244.09541	688.65662	1167.07263	477.54742	689.90350	1099.69629	494.37067	701.36981	1051.16064	411.76556	794.81885	1176.78125	461.06061	829.17133	1230.66809	425.34000	876.90350	1174.35742	418.05804	902.84052	1282.65674	451.73062	642.16370	1179.73145	16.56984	658.12244	1071.50745	6.82476	605.32715	1034.34229	69.49605	700.97119	907.42719	13.32410	730.16168	836.28833	49.47436	667.69348	814.10242	19.04142	763.52295	751.10101	23.66884
3673	14.68800	601.47522	1418.06726	263.66898	650.13574	1363.24915	404.49475	643.89105	1370.50879	89.78809	733.38477	1280.98938	244.10176	688.65399	1167.03845	477.52756	689.91980	1099.66504	494.35443	700.52258	1051.12073	412.44870	794.97961	1176.61572	461.04105	829.24158	1229.84583	425.21793	877.09460	1174.09631	418.13553	903.12781	1282.37708	451.73599	642.19067	1179.71655	16.57338	658.13293	1071.48584	6.83684	605.30658	1034.29663	69.48425	700.96448	907.40381	13.33607	730.13531	836.25128	49.48137	667.65643	814.04712	19.05624	763.49854	751.07025	23.69192
3674	14.69200	601.49146	1418.05432	263.66489	650.16168	1363.26465	404.49661	643.91553	1370.48779	89.78724	733.41046	1280.99512	244.11093	688.66296	1167.03381	477.53644	689.94580	1099.65930	494.37308	700.26440	1051.07788	412.69055	795.15698	1176.46399	461.04041	829.44879	1229.50256	425.18869	877.29095	1173.83533	418.19269	903.40460	1282.09851	451.74100	642.20532	1179.69690	16.57906	658.13300	1071.46057	6.84369	605.30402	1034.26794	69.49495	700.95148	907.37592	13.34515	730.11993	836.22406	49.50188	667.63275	814.01056	19.08694	763.46814	751.03650	23.71969
3675	14.69600	601.50995	1418.04810	263.65607	650.18335	1363.28247	404.49420	643.93988	1370.46777	89.77836	733.43207	1280.99548	244.11255	688.70190	1167.06738	477.56876	690.00287	1099.67590	494.42743	700.13397	1051.03357	412.86295	795.35815	1176.33728	461.05823	829.70062	1229.26929	425.22250	877.48541	1173.56738	418.24738	903.67932	1281.82251	451.74405	642.22083	1179.67273	16.58220	658.13043	1071.43127	6.85115	605.32959	1034.26794	69.52686	700.93536	907.34808	13.35124	730.11694	836.21088	49.54029	667.62653	814.00403	19.12279	763.43292	751.00031	23.74428
3676	14.70000	601.52966	1418.05176	263.64178	650.21088	1363.29834	404.48523	643.97070	1370.44812	89.76469	733.44666	1280.98889	244.11745	688.75195	1167.11719	477.60913	690.07922	1099.70374	494.48581	700.09863	1051.02258	412.97281	795.56885	1176.21863	461.08554	829.98651	1229.04932	425.28021	877.68658	1173.27319	418.30444	903.95844	1281.51562	451.73926	642.24237	1179.64819	16.58393	658.13074	1071.39917	6.85598	605.37756	1034.28699	69.56071	700.92871	907.31476	13.35873	730.12854	836.20441	49.58751	667.63483	814.01465	19.15664	763.40460	750.95959	23.76904
3677	14.70400	601.54858	1418.06763	263.62341	650.24066	1363.31555	404.47894	644.00757	1370.43506	89.74679	733.46307	1280.97766	244.12459	688.79846	1167.16174	477.63513	690.13940	1099.73669	494.53070	700.11438	1051.03821	413.02927	795.77509	1176.10498	461.10989	830.29388	1228.82080	425.32681	877.89795	1172.95642	418.36435	904.24457	1281.19653	451.73688	642.27106	1179.62878	16.58479	658.13428	1071.37305	6.86009	605.43524	1034.31726	69.59404	700.93005	907.28552	13.36432	730.13928	836.20044	49.62469	667.65070	814.04028	19.17387	763.38715	750.91901	23.78804
3678	14.70800	601.56812	1418.08997	263.59573	650.26544	1363.34265	404.46716	644.04907	1370.42908	89.72778	733.48047	1280.97681	244.12741	688.82623	1167.17908	477.62927	690.17053	1099.76404	494.54395	700.12061	1051.04480	413.06155	795.96722	1175.96545	461.10379	830.60553	1228.59717	425.29501	878.12231	1172.63086	418.42957	904.55231	1280.88574	451.72781	642.30316	1179.61621	16.57557	658.14288	1071.35901	6.86308	605.46088	1034.33582	69.59280	700.93286	907.26935	13.37001	730.13037	836.19238	49.63202	667.65363	814.05939	19.15824	763.37030	750.88885	23.79847
3679	14.71200	601.58557	1418.11816	263.56030	650.28552	1363.38013	404.44482	644.08887	1370.42920	89.70272	733.49689	1280.98425	244.12691	688.83374	1167.16235	477.58838	690.18213	1099.76001	494.50412	700.09375	1051.02185	413.07611	796.15857	1175.79138	461.06332	830.91571	1228.37805	425.18768	878.35730	1172.29321	418.50250	904.88818	1280.55701	451.71640	642.33838	1179.60522	16.56530	658.15863	1071.35376	6.86127	605.44946	1034.32129	69.56664	700.93561	907.25861	13.37405	730.09894	836.16571	49.61546	667.63812	814.04926	19.13050	763.35339	750.87695	23.80377
3680	14.71600	601.60138	1418.14111	263.52423	650.30518	1363.40930	404.42560	644.12036	1370.42053	89.68593	733.51642	1280.99585	244.12604	688.82294	1167.11462	477.52359	690.19574	1099.73535	494.43591	700.04285	1050.97607	413.07828	796.34808	1175.59216	461.00854	831.22742	1228.15051	425.06064	878.59521	1171.94641	418.57678	905.24438	1280.21826	451.72464	642.36810	1179.58960	16.56205	658.17480	1071.34790	6.85335	605.42004	1034.28174	69.53333	700.93500	907.24194	13.38209	730.06323	836.12524	49.59471	667.59991	814.00690	19.10999	763.34070	750.86798	23.80296
3681	14.72000	601.61792	1418.14856	263.49420	650.32123	1363.42639	404.40948	644.14362	1370.40503	89.67303	733.53546	1281.00964	244.12097	688.81769	1167.06482	477.46014	690.20892	1099.70740	494.36652	699.98029	1050.92786	413.07712	796.54620	1175.38477	460.96530	831.53906	1227.90210	424.95868	878.84344	1171.60535	418.63187	905.60962	1279.87122	451.74191	642.39258	1179.57532	16.56243	658.18658	1071.33838	6.84961	605.37933	1034.22864	69.50100	700.93140	907.21857	13.38984	730.03265	836.08453	49.58181	667.55560	813.94257	19.10463	763.32281	750.85223	23.79877
